<svg width="512" height="512" xmlns="http://www.w3.org/2000/svg">

 <g>
  <title>background</title>
  <rect fill="none" id="canvas_background" height="402" width="582" y="-1" x="-1"/>
 </g>
 <g>
  <title>Layer 1</title>
  <g id="svg_1">
   <g id="svg_2">
    <g id="svg_3">
     <path fill="#0eb3a2" id="svg_4" d="m468.915,465.211c-0.502,-3.572 -1.444,-7.077 -2.861,-10.384l-18.773,-37.547c-0.362,-0.724 -0.887,-1.444 -1.557,-2.103l-104.257,-212.084l0,-134.826c18.773,0 34.133,-15.36 34.133,-34.133c0.001,-18.774 -15.359,-34.134 -34.133,-34.134l-170.666,0c-18.773,0 -34.133,15.36 -34.133,34.133c0,18.773 15.36,34.133 34.133,34.133l0,134.827l-124.587,253.44c-5.973,11.947 -5.12,26.453 2.56,37.547c7.68,11.093 19.627,17.92 33.28,17.92l348.16,0c13.653,0 26.453,-5.12 33.28,-17.067c5.302,-9.278 7.495,-19.584 5.421,-29.722zm-315.181,-431.078c0,-9.387 7.68,-17.067 17.067,-17.067l170.667,0c9.387,0 17.067,7.68 17.067,17.067c0,9.387 -7.68,17.067 -17.067,17.067l-8.533,0l-153.6,0l-8.533,0c-9.388,0 -17.068,-7.68 -17.068,-17.067zm33.28,174.08c0.853,-0.853 0.853,-1.707 0.853,-3.413l0,-136.533l136.533,0l0,136.533c0,1.707 0,2.56 0.853,3.413l95.801,196.196c-5.078,-2.958 -9.731,-6.396 -13.881,-10.169c-36.693,-36.693 -95.573,-65.707 -139.093,-26.453l-0.853,0.853c-34.987,32.427 -84.48,6.827 -116.907,-25.6c-6.341,-5.707 -14.097,-10.941 -22.216,-15.005l58.91,-119.822zm242.347,286.72l-347.307,0c-7.68,0 -14.507,-3.413 -18.773,-10.24s-5.12,-14.507 -1.707,-21.333l59.09,-120.19c6.756,4.206 13.478,7.611 16.857,13.523c36.693,36.693 95.573,65.707 139.093,26.453l0.853,-0.853c34.987,-32.427 84.48,-6.827 116.907,25.6c11.093,9.387 23.893,16.213 38.4,21.333l17.067,34.133c3.413,6.827 2.56,14.507 -1.707,21.333s-11.093,10.241 -18.773,10.241z"/>
     <path fill="#0eb3a2" id="svg_5" d="m196.401,256l51.2,0c5.12,0 8.533,-3.413 8.533,-8.533s-3.413,-8.533 -8.533,-8.533l-51.2,0c-5.12,0 -8.533,3.413 -8.533,8.533s3.413,8.533 8.533,8.533z"/>
     <path fill="#0eb3a2" id="svg_6" d="m162.267,324.267l51.2,0c5.12,0 8.533,-3.413 8.533,-8.533s-3.413,-8.533 -8.533,-8.533l-51.2,0c-5.12,0 -8.533,3.413 -8.533,8.533s3.413,8.533 8.533,8.533z"/>
     <path fill="#0eb3a2" id="svg_7" d="m179.334,290.133l25.6,0c5.12,0 8.533,-3.413 8.533,-8.533s-3.413,-8.533 -8.533,-8.533l-25.6,0c-5.12,0 -8.533,3.413 -8.533,8.533s3.413,8.533 8.533,8.533z"/>
    </g>
   </g>
  </g>
  <g id="svg_8"/>
  <g id="svg_9"/>
  <g id="svg_10"/>
  <g id="svg_11"/>
  <g id="svg_12"/>
  <g id="svg_13"/>
  <g id="svg_14"/>
  <g id="svg_15"/>
  <g id="svg_16"/>
  <g id="svg_17"/>
  <g id="svg_18"/>
  <g id="svg_19"/>
  <g id="svg_20"/>
  <g id="svg_21"/>
  <g id="svg_22"/>
 </g>
</svg>