<svg width="480" height="480.03768" xmlns="http://www.w3.org/2000/svg">

 <g>
  <title>background</title>
  <rect fill="none" id="canvas_background" height="402" width="582" y="-1" x="-1"/>
 </g>
 <g>
  <title>Layer 1</title>
  <path fill="#0eb3a2" id="svg_1" d="m48.019531,224.039062l-0.273437,0l78.191406,177.160157c8.371094,-0.730469 17.050781,-1.160157 26.082031,-1.160157c4.640625,0 9.167969,0.117188 13.597657,0.320313l-81.871094,-187.25c-10.546875,7.132813 -22.992188,10.941406 -35.726563,10.929687zm0,0"/>
  <path fill="#0eb3a2" id="svg_2" d="m152.019531,416.039062c-68.402343,0 -120,24.078126 -120,56c0,4.417969 3.582031,8 8,8l224,0c4.417969,0 8,-3.582031 8,-8c0,-31.921874 -51.601562,-56 -120,-56zm0,0"/>
  <path fill="#0eb3a2" id="svg_3" d="m350.980469,111.636719c-17.132813,-29.71875 -48.859375,-48 -83.160157,-47.917969l-34.441406,-59.679688c-1.054687,-1.851562 -2.804687,-3.207031 -4.863281,-3.761718c-2.058594,-0.554688 -4.253906,-0.269531 -6.097656,0.800781l-69.277344,40c-1.851563,1.054687 -3.207031,2.804687 -3.761719,4.863281c-0.558594,2.058594 -0.269531,4.253906 0.800782,6.097656l34.640624,59.832032c-17.210937,29.585937 -17.273437,66.121094 -0.160156,95.765625c2.234375,3.808593 7.109375,5.125 10.957032,2.960937l152.402343,-88c1.851563,-1.054687 3.203125,-2.804687 3.761719,-4.863281c0.554688,-2.058594 0.265625,-4.253906 -0.800781,-6.097656zm0,0"/>
  <path fill="#0eb3a2" id="svg_4" d="m109.242188,141.4375l55.335937,-32.542969l-19.238281,-33.273437l-57.824219,34.160156c10.304687,8.085938 17.886719,19.132812 21.726563,31.65625zm0,0"/>
  <path fill="#0eb3a2" id="svg_5" d="m96.019531,160.039062c0,26.507813 -21.492187,48 -48,48c-26.511719,0 -48,-21.492187 -48,-48c0,-26.511718 21.488281,-48 48,-48c26.507813,0 48,21.488282 48,48zm0,0"/>
 </g>
</svg>