<svg width="511" height="512" xmlns="http://www.w3.org/2000/svg">

 <g>
  <title>background</title>
  <rect fill="none" id="canvas_background" height="402" width="582" y="-1" x="-1"/>
 </g>
 <g>
  <title>Layer 1</title>
  <path fill="#0eb3a2" id="svg_1" d="m274.753906,250.960938l46.6875,46.503906c19.484375,-22.988282 32.707032,-50.074219 38.804688,-79.183594c-14.121094,-5.148438 -28.84375,-12.238281 -43.769532,-21.003906c-11.628906,18.265625 -25.660156,36.398437 -41.722656,53.683594zm0,0"/>
  <path fill="#0eb3a2" id="svg_2" d="m305.628906,152.753906c11.230469,-23.15625 17.480469,-45.398437 17.480469,-64.394531c0,-8.328125 -1.214844,-15.625 -3.601563,-21.859375l-53.769531,53.492188c12.988281,12.046874 26.433594,23.0625 39.890625,32.761718zm0,0"/>
  <path fill="#0eb3a2" id="svg_3" d="m165.894531,47.226562c-8.746093,-14.789062 -15.816406,-29.378906 -20.96875,-43.378906c-28.605469,5.941406 -56.035156,18.78125 -79.589843,38.519532l46.667968,46.480468c17.285156,-15.957031 35.46875,-29.976562 53.890625,-41.621094zm0,0"/>
  <path fill="#0eb3a2" id="svg_4" d="m226.296875,18.09375c7.554687,-2.476562 14.894531,-4.402344 21.996094,-5.8125c-21.171875,-8.179688 -43.578125,-12.28125 -65.988281,-12.28125c-1.753907,0 -3.503907,0.03125 -5.257813,0.082031c4.25,10.226563 9.683594,20.882813 16.136719,31.726563c11.121094,-5.535156 22.207031,-10.144532 33.113281,-13.714844zm0,0"/>
  <path fill="#0eb3a2" id="svg_5" d="m210.578125,58.097656c9.765625,13.4375 20.859375,26.867188 33,39.832032l53.757813,-53.484376c-6.390626,-2.425781 -13.863282,-3.65625 -22.21875,-3.65625c-11.539063,0 -24.75,2.328126 -39.085938,7.023438c-8.371094,2.742188 -16.882812,6.191406 -25.453125,10.285156zm0,0"/>
  <path fill="#0eb3a2" id="svg_6" d="m128.574219,314.078125c8.375,-2.738281 16.886719,-6.191406 25.457031,-10.28125c-9.769531,-13.441406 -20.863281,-26.867187 -32.996094,-39.832031l-53.757812,53.484375c15.210937,5.777343 36.589844,4.726562 61.296875,-3.371094zm0,0"/>
  <path fill="#0eb3a2" id="svg_7" d="m182.300781,203.011719l-39.085937,38.882812c14.296875,15.1875 27.203125,30.875 38.417968,46.601563c16.582032,-10.449219 33.046876,-23.097656 48.792969,-37.546875l-48.125,-47.9375zm0,0"/>
  <path fill="#0eb3a2" id="svg_8" d="m74.410156,181.644531c15.742188,11.148438 31.445313,23.976563 46.648438,38.179688l39.082031,-38.882813l-48.105469,-47.917968c-14.46875,15.675781 -27.148437,32.144531 -37.625,48.621093zm0,0"/>
  <path fill="#0eb3a2" id="svg_9" d="m134.183594,110.941406l48.128906,47.941406l39.082031,-38.882812c-14.296875,-15.191406 -27.207031,-30.878906 -38.421875,-46.601562c-16.582031,10.449218 -33.042968,23.09375 -48.789062,37.542968zm0,0"/>
  <path fill="#0eb3a2" id="svg_10" d="m290.199219,180.25c-15.742188,-11.148438 -31.445313,-23.980469 -46.648438,-38.179688l-39.082031,38.882813l48.105469,47.914063c14.464843,-15.675782 27.148437,-32.144532 37.625,-48.617188zm0,0"/>
  <path fill="#0eb3a2" id="svg_11" d="m41.5,273.53125c0,8.332031 1.214844,15.628906 3.601562,21.863281l53.769532,-53.496093c-12.988282,-12.046876 -26.433594,-23.0625 -39.890625,-32.757813c-11.230469,23.152344 -17.480469,45.394531 -17.480469,64.390625zm0,0"/>
  <path fill="#0eb3a2" id="svg_12" d="m89.855469,110.929688l-46.691407,-46.503907c-19.480468,22.988281 -32.703124,50.078125 -38.804687,79.183594c14.125,5.148437 28.847656,12.238281 43.773437,21.003906c11.628907,-18.261719 25.65625,-36.398437 41.722657,-53.683593zm0,0"/>
  <path fill="#0eb3a2" id="svg_13" d="m299.273438,319.523438l-46.667969,-46.480469c-17.285157,15.960937 -35.46875,29.976562 -53.894531,41.625c8.746093,14.789062 15.824218,29.378906 20.972656,43.378906c28.605468,-5.945313 56.039062,-18.785156 79.589844,-38.523437zm0,0"/>
  <path fill="#0eb3a2" id="svg_14" d="m187.535156,361.757812c-4.246094,-10.207031 -9.671875,-20.84375 -16.117187,-31.671874c-11.117188,5.53125 -22.199219,10.140624 -33.105469,13.714843c-7.359375,2.410157 -14.507812,4.296875 -21.433594,5.695313c20.78125,8.082031 43.128906,12.3125 66.148438,12.3125c1.507812,0 3.007812,-0.015625 4.507812,-0.050782zm0,0"/>
  <path fill="#0eb3a2" id="svg_15" d="m364.109375,180.945312c0,-4.910156 -0.207031,-9.789062 -0.59375,-14.632812c-1.488281,-17.671875 -5.542969,-34.820312 -11.980469,-51.015625c-3.492187,17.472656 -10.148437,35.980469 -19.5625,54.738281c10.960938,6.472656 21.726563,11.910156 32.054688,16.15625c0.046875,-1.746094 0.082031,-3.492187 0.082031,-5.246094zm0,0"/>
  <path fill="#0eb3a2" id="svg_16" d="m32.636719,191.855469c-10.960938,-6.472657 -21.730469,-11.910157 -32.054688,-16.15625c-0.050781,1.746093 -0.082031,3.492187 -0.082031,5.246093c0,23 4.289062,45.34375 12.472656,66.132813c3.464844,-17.613281 10.164063,-36.289063 19.664063,-55.222656zm0,0"/>
  <path fill="#0eb3a2" id="svg_17" d="m293.199219,479.789062l-94.78125,0l0,-23.246093c-5.109375,0.277343 -10.238281,0.429687 -15.390625,0.429687c-5.636719,0 -11.242188,-0.1875 -16.820313,-0.519531l0,23.335937l-94.785156,0c-8.894531,0 -16.105469,7.210938 -16.105469,16.105469s7.210938,16.105469 16.105469,16.105469l221.777344,0c8.894531,0 16.105469,-7.210938 16.105469,-16.105469s-7.207032,-16.105469 -16.105469,-16.105469zm0,0"/>
  <path fill="#0eb3a2" id="svg_18" d="m355.542969,9.738281c-2.992188,-2.976562 -6.90625,-4.464843 -10.816407,-4.464843c-3.933593,0 -7.863281,1.503906 -10.859374,4.507812c-5.972657,6 -5.953126,15.703125 0.042968,21.675781c40.285156,40.125 62.46875,93.46875 62.46875,150.203125c0,56.738282 -22.183594,110.082032 -62.46875,150.207032c-41.597656,41.433593 -96.238281,62.152343 -150.882812,62.152343c-54.640625,0 -109.285156,-20.71875 -150.882813,-62.152343c-2.992187,-2.980469 -6.90625,-4.46875 -10.820312,-4.46875c-3.929688,0 -7.863281,1.503906 -10.855469,4.511718c-5.972656,5.996094 -5.953125,15.699219 0.042969,21.675782c46.082031,45.898437 107.351562,71.179687 172.515625,71.179687c65.160156,0 126.4375,-25.28125 172.515625,-71.179687c46.101562,-45.921876 71.488281,-106.976563 71.488281,-171.921876c0,-64.949218 -25.386719,-126.003906 -71.488281,-171.925781zm0,0"/>
 </g>
</svg>